<?xml version="1.0" encoding="utf-8" ?>
<svg height="24" width="24" xmlns="http://www.w3.org/2000/svg">


    <path fill="#1A759F" d="M 18.28 13.073 L 13.74 10.813 C 13.57 10.743 13.39 10.703 13.2 10.703 L 12.44 10.703 L 12.44 4.703 C 12.44 3.873 11.77 3.203 10.94 3.203 C 10.11 3.203 9.44 3.873 9.44 4.703 L 9.44 15.443 C 5.84 14.683 5.9 14.693 5.77 14.693 C 5.46 14.693 5.18 14.823 4.98 15.023 L 4.19 15.823 L 9.13 20.763 C 9.4 21.033 9.78 21.203 10.19 21.203 L 16.98 21.203 C 17.73 21.203 18.31 20.653 18.42 19.923 L 19.17 14.653 C 19.18 14.583 19.19 14.513 19.19 14.453 C 19.19 13.833 18.81 13.293 18.28 13.073 Z" />

</svg>